# xmcd CD database file
#
# Track frame offsets:
#	150
#	46778
#	89736
#	123949
#	181787
#	250498
#	282669
#	353461
#
# Disc length: 4748 seconds
#
# Revision: 2
# Processed by: cddbd v1.5.2PL0 Copyright (c) Steve Scherf et al.
# Submitted via: CDex 1.51
#
DISCID=6f128a08
DTITLE=Ronald Reng - Gebrauchsanweisung für London CD02
DYEAR=2004
DGENRE=Hörbuch
TTITLE0=Sterne
TTITLE1=Freddie Starr aß den Hamster
TTITLE2=Londoner: Emily Richard
TTITLE3=Der rote Ken
TTITLE4=Jungs in der City
TTITLE5=Londoner: Matthew Syed
TTITLE6=Gel' Dir die Haare, wir sind im Cup-Finale!
TTITLE7=Londoner: Pandit Jee Mahraj
EXTD=YEAR: 2004
EXTT0=
EXTT1=
EXTT2=
EXTT3=
EXTT4=
EXTT5=
EXTT6=
EXTT7=
PLAYORDER=
